<svg xmlns="http://www.w3.org/2000/svg" width="30" height="30" viewBox="0 0 67 48" fill="none">
  <path d="M3.72222 47.4433C2.66759 47.4433 1.78419 47.0705 1.072 46.3248C0.357334 45.5817 0 44.6599 0 43.5595C0 42.4591 0.357334 41.5374 1.072 40.7943C1.78419 40.0486 2.66759 39.6758 3.72222 39.6758H63.2778C64.3324 39.6758 65.2158 40.0486 65.928 40.7943C66.6427 41.5374 67 42.4591 67 43.5595C67 44.6599 66.6427 45.5817 65.928 46.3248C65.2158 47.0705 64.3324 47.4433 63.2778 47.4433H3.72222ZM3.72222 28.0244C2.66759 28.0244 1.78419 27.6516 1.072 26.9059C0.357334 26.1628 0 25.241 0 24.1406C0 23.0402 0.357334 22.1172 1.072 21.3715C1.78419 20.6284 2.66759 20.2568 3.72222 20.2568H63.2778C64.3324 20.2568 65.2158 20.6284 65.928 21.3715C66.6427 22.1172 67 23.0402 67 24.1406C67 25.241 66.6427 26.1628 65.928 26.9059C65.2158 27.6516 64.3324 28.0244 63.2778 28.0244H3.72222ZM3.72222 8.60546C2.66759 8.60546 1.78419 8.23391 1.072 7.49082C0.357334 6.74513 0 5.82208 0 4.72168C0 3.62127 0.357334 2.69822 1.072 1.95254C1.78419 1.20944 2.66759 0.837891 3.72222 0.837891H63.2778C64.3324 0.837891 65.2158 1.20944 65.928 1.95254C66.6427 2.69822 67 3.62127 67 4.72168C67 5.82208 66.6427 6.74513 65.928 7.49082C65.2158 8.23391 64.3324 8.60546 63.2778 8.60546H3.72222Z" fill="white"/>
</svg>