<svg width="14" height="8" viewBox="0 0 14 8" fill="none" xmlns="http://www.w3.org/2000/svg">
<path d="M13.723 1.67977L7.51715 7.71127C7.44327 7.78286 7.36324 7.83345 7.27704 7.86304C7.19085 7.89311 7.0985 7.90814 7 7.90814C6.90149 7.90814 6.80915 7.89311 6.72295 7.86304C6.63676 7.83345 6.55673 7.78286 6.48285 7.71127L0.258575 1.67977C0.0861917 1.51272 0 1.30392 0 1.05335C0 0.802781 0.0923483 0.58801 0.277045 0.409034C0.461741 0.230057 0.677221 0.140569 0.923483 0.140569C1.16974 0.140569 1.38522 0.230057 1.56992 0.409034L7 5.67094L12.4301 0.409034C12.6025 0.241989 12.8147 0.158467 13.0669 0.158467C13.3196 0.158467 13.5383 0.247955 13.723 0.426931C13.9077 0.605907 14 0.814713 14 1.05335C14 1.29198 13.9077 1.50079 13.723 1.67977Z" fill="white"/>
</svg>
